<?xml version="1.0" encoding="UTF-8"?>
<svg width="268px" height="94px" viewBox="0 0 268 94" version="1.1" xmlns="http://www.w3.org/2000/svg" xmlns:xlink="http://www.w3.org/1999/xlink">
    <!-- Generator: Sketch 42 (36781) - http://www.bohemiancoding.com/sketch -->
    <title>KOVI</title>
    <desc>Created with Sketch.</desc>
    <defs></defs>
    <g id="Page-2" stroke="none" stroke-width="1" fill="none" fill-rule="evenodd">
        <g id="Artboard" transform="translate(-121.000000, -70.000000)" fill="#3F51B5">
            <path d="M121.37793,161 L121.37793,72.8359375 L133.113281,72.8359375 L133.113281,116.203125 L168.795898,72.8359375 L181.365234,72.8359375 L146.814453,114.892578 L187.500977,161 L171.655273,161 L133.113281,116.322266 L133.113281,161 L121.37793,161 Z M236.527344,163.204102 C224.295512,163.204102 214.45658,158.964723 207.010254,150.48584 C199.563928,142.006956 195.84082,130.797921 195.84082,116.858398 C195.84082,102.839448 199.583784,91.6304131 207.069824,83.230957 C214.555864,74.831501 224.553648,70.6318359 237.063477,70.6318359 C249.533591,70.6318359 259.521447,74.8215727 267.027344,83.2011719 C274.533241,91.5807711 278.286133,102.760021 278.286133,116.739258 C278.286133,130.996491 274.533241,142.304808 267.027344,150.664551 C259.521447,159.024293 249.354882,163.204102 236.527344,163.204102 Z M236.706055,153.851562 C245.721074,153.851562 252.690731,150.605013 257.615234,144.111816 C262.539738,137.61862 265.001953,128.454812 265.001953,116.620117 C265.001953,105.142846 262.52981,96.1676756 257.585449,89.6943359 C252.641089,83.2209963 245.800499,79.984375 237.063477,79.984375 C228.28674,79.984375 221.436223,83.2309246 216.511719,89.7241211 C211.587215,96.2173176 209.125,105.24213 209.125,116.798828 C209.125,128.315813 211.567358,137.37041 216.452148,143.962891 C221.336938,150.555372 228.088173,153.851562 236.706055,153.851562 Z M319.866211,161 L286.566406,72.8359375 L299.076172,72.8359375 L326.359375,145.035156 L352.689453,72.8359375 L363.650391,72.8359375 L331.661133,161 L319.866211,161 Z M375.504883,161 L375.504883,72.8359375 L388.014648,72.8359375 L388.014648,161 L375.504883,161 Z" id="KOVI"></path>
        </g>
    </g>
</svg>
